<svg xmlns="http://www.w3.org/2000/svg" viewBox="0 0 64 64" role="img" aria-label="DG logo">
  <rect x="5" y="5" width="54" height="54" fill="none" stroke="currentColor" stroke-width="4" />
  <path d="M 11 21.979 L 20.201 21.979 C 22.015 21.979 23.48 22.225 24.597 22.717 C 25.713 23.209 26.636 23.915 27.365 24.836 C 28.094 25.757 28.623 26.827 28.951 28.049 C 29.279 29.27 29.443 30.564 29.443 31.932 C 29.443 34.074 29.2 35.735 28.712 36.915 C 28.224 38.095 27.548 39.084 26.682 39.882 C 25.816 40.679 24.886 41.21 23.893 41.475 C 22.535 41.839 21.304 42.021 20.201 42.021 L 11 42.021 Z M 17.193 26.518 L 17.193 37.469 L 18.711 37.469 C 20.005 37.469 20.926 37.325 21.473 37.038 C 22.02 36.751 22.448 36.25 22.758 35.534 C 23.068 34.819 23.223 33.659 23.223 32.055 C 23.223 29.931 22.876 28.477 22.184 27.693 C 21.491 26.91 20.342 26.518 18.738 26.518 M 43.43 34.762 L 43.43 30.592 L 53 30.592 L 53 39.137 C 51.168 40.385 49.548 41.235 48.14 41.687 C 46.731 42.138 45.061 42.363 43.129 42.363 C 40.75 42.363 38.811 41.958 37.312 41.146 C 35.812 40.335 34.65 39.128 33.825 37.523 C 33 35.919 32.588 34.078 32.588 32 C 32.588 29.813 33.039 27.91 33.941 26.292 C 34.844 24.674 36.165 23.446 37.906 22.607 C 39.264 21.96 41.092 21.637 43.389 21.637 C 45.604 21.637 47.26 21.837 48.358 22.238 C 49.457 22.639 50.368 23.261 51.093 24.104 C 51.817 24.948 52.362 26.016 52.727 27.311 L 46.752 28.377 C 46.506 27.62 46.089 27.042 45.501 26.641 C 44.913 26.24 44.163 26.039 43.252 26.039 C 41.894 26.039 40.812 26.511 40.005 27.454 C 39.198 28.397 38.795 29.89 38.795 31.932 C 38.795 34.101 39.203 35.65 40.019 36.58 C 40.834 37.51 41.971 37.975 43.43 37.975 C 44.122 37.975 44.783 37.874 45.412 37.674 C 46.041 37.473 46.761 37.132 47.572 36.648 L 47.572 34.762 Z" fill="currentColor" />
</svg>
